<?xml version="1.0" encoding="utf-8"?>
<!-- Generator: Adobe Illustrator 16.0.0, SVG Export Plug-In . SVG Version: 6.00 Build 0)  -->
<!DOCTYPE svg PUBLIC "-//W3C//DTD SVG 1.1//EN" "http://www.w3.org/Graphics/SVG/1.1/DTD/svg11.dtd">
<svg version="1.1" id="Layer_1" xmlns="http://www.w3.org/2000/svg" xmlns:xlink="http://www.w3.org/1999/xlink" x="0px" y="0px"
	 width="992.256px" height="174.042px" viewBox="43.497 12.006 992.256 174.042"
	 enable-background="new 43.497 12.006 992.256 174.042" xml:space="preserve">
<g id="Layer_1_1_">
	<g>
		<path fill="#4E525A" d="M155.958,67.848c-4.527-4.05-11.478-3.657-15.516,0.885c-4.044,4.542-3.648,11.502,0.885,15.558
			c9.366,8.403,15.225,20.496,15.228,34.064c-0.042,25.209-20.391,45.609-45.534,45.651c-25.146-0.042-45.495-20.438-45.537-45.651
			c0.003-13.631,5.922-25.77,15.363-34.176c4.545-4.035,4.962-11.001,0.939-15.552c-4.029-4.554-10.971-4.977-15.516-0.939
			l-0.003-0.006c-13.935,12.363-22.773,30.534-22.77,50.672c0.006,37.393,30.228,67.687,67.524,67.692
			c37.293-0.006,67.512-30.303,67.521-67.692C178.545,98.301,169.791,80.199,155.958,67.848z"/>
		<path fill="#4E525A" d="M140.445,44.814L114.468,13.71c-0.945-1.137-2.196-1.704-3.447-1.704c-1.248,0-2.499,0.567-3.45,1.707
			L81.597,44.817c-1.893,2.271-1.029,4.128,1.923,4.128h13.653c1.479,0,3.423,0,5.37,0v29.178c0,2.958,2.418,5.382,5.373,5.382h6.21
			c2.955,0,5.373-2.424,5.373-5.382V48.945c1.944,0,3.891,0,5.367,0h13.656C141.477,48.942,142.341,47.085,140.445,44.814z"/>
	</g>
	<path fill="#4E525A" d="M291.774,181.674c-3.123,0-5.697-1.038-7.71-3.123c-2.01-2.082-3.057-4.613-3.12-7.602
		c-4.794,3.747-9.864,6.479-15.21,8.172c-5.349,1.707-11.145,2.553-17.397,2.553c-7.431,0-14.442-1.437-21.042-4.316
		c-6.597-2.881-12.357-6.793-17.292-11.719c-4.938-4.929-8.841-10.697-11.721-17.295c-2.88-6.6-4.323-13.611-4.323-21.042V75.843
		c0-2.985,1.059-5.532,3.177-7.649c2.121-2.121,4.71-3.181,7.761-3.181c2.985,0,5.538,1.06,7.659,3.181
		c2.118,2.118,3.177,4.665,3.177,7.649v51.459c0,4.515,0.855,8.745,2.553,12.708c1.701,3.96,4.026,7.416,6.975,10.359
		c2.952,2.958,6.408,5.286,10.371,6.984c3.96,1.7,8.19,2.547,12.705,2.547c4.446,0,8.649-0.847,12.603-2.547
		c3.954-1.698,7.431-4.048,10.419-7.032c2.985-2.988,5.331-6.438,7.032-10.368c1.698-3.918,2.553-8.143,2.553-12.651V75.843
		c0-2.985,1.059-5.532,3.177-7.649c2.121-2.121,4.71-3.181,7.761-3.181c2.985,0,5.538,1.06,7.656,3.181
		c2.121,2.118,3.18,4.665,3.18,7.649v95.001c0,2.985-1.059,5.538-3.18,7.65C297.42,180.621,294.831,181.674,291.774,181.674z"/>
	<path fill="#4E525A" d="M329.28,65.007h4.89V25.839c0-2.988,1.062-5.535,3.18-7.653c2.118-2.118,4.707-3.18,7.758-3.18
		c2.988,0,5.541,1.062,7.659,3.18c2.118,2.118,3.18,4.665,3.18,7.653v39.168h13.02c2.985,0,5.517,1.059,7.602,3.177
		c2.082,2.121,3.12,4.665,3.12,7.653c0,3.057-1.038,5.646-3.12,7.764c-2.085,2.121-4.617,3.174-7.602,3.174h-13.02v52.395
		c0,13.818,6.948,20.73,20.835,20.73c2.988,0,5.517,1.059,7.602,3.171c2.082,2.127,3.123,4.671,3.123,7.659
		c0,3.057-1.041,5.646-3.123,7.758c-2.085,2.127-4.614,3.177-7.602,3.177c-28.401,0-42.603-14.163-42.603-42.504V86.766h-4.893
		c-2.916,0-5.433-1.053-7.551-3.171c-2.121-2.118-3.18-4.707-3.18-7.764c0-2.988,1.059-5.535,3.18-7.653
		C323.853,66.06,326.355,65.007,329.28,65.007z"/>
	<path fill="#4E525A" d="M424.17,77.928c10.348-8.613,22.536-12.915,36.566-12.915c15.973,0,29.725,5.697,41.254,17.082
		c5.697,5.625,9.963,11.898,12.812,18.811c2.854,6.912,4.275,14.385,4.275,22.442c0,16.248-5.697,30-17.082,41.25
		c-11.525,11.395-25.281,17.082-41.253,17.082c-16.113,0-29.859-5.693-41.25-17.082c-11.394-11.385-17.082-25.137-17.082-41.25
		V25.845c0-3.123,1.022-5.712,3.071-7.767c2.05-2.04,4.636-3.072,7.759-3.072c3.057,0,5.64,1.032,7.758,3.072
		c2.121,2.055,3.181,4.638,3.181,7.767v52.083H424.17z M460.736,159.906c5.07,0,9.828-0.976,14.275-2.916
		c4.442-1.941,8.312-4.587,11.609-7.914c3.3-3.327,5.904-7.203,7.818-11.619c1.91-4.404,2.865-9.111,2.865-14.109
		c0-5.001-0.955-9.701-2.865-14.108c-1.914-4.41-4.519-8.286-7.818-11.619c-3.297-3.336-7.167-5.976-11.609-7.917
		c-4.447-1.941-9.205-2.916-14.275-2.916c-5.141,0-9.926,0.975-14.369,2.916c-4.446,1.941-8.301,4.572-11.565,7.866
		c-3.264,3.291-5.853,7.167-7.758,11.612c-1.905,4.443-2.864,9.165-2.864,14.166c0,4.998,0.95,9.721,2.864,14.166
		c1.914,4.443,4.494,8.319,7.758,11.61c3.265,3.31,7.119,5.925,11.565,7.866C450.811,158.931,455.596,159.906,460.736,159.906z"/>
	<path fill="#4E525A" d="M652.407,123.339c0,16.251-5.697,30.003-17.082,41.253c-11.526,11.395-25.281,17.082-41.253,17.082
		c-16.113,0-29.859-5.697-41.25-17.082c-11.395-11.385-17.082-25.137-17.082-41.253c0-16.113,5.697-29.859,17.082-41.25
		c11.385-11.394,25.137-17.082,41.25-17.082c15.972,0,29.727,5.694,41.253,17.082c5.696,5.694,9.942,11.982,12.759,18.852
		C650.898,107.808,652.335,115.29,652.407,123.339z M594.072,86.781c-5.139,0-9.928,0.975-14.37,2.916
		c-4.446,1.94-8.298,4.572-11.562,7.866c-3.265,3.291-5.854,7.167-7.768,11.61c-1.914,4.446-2.859,9.168-2.859,14.166
		c0,5.001,0.954,9.724,2.859,14.166c1.904,4.446,4.503,8.322,7.768,11.613c3.264,3.306,7.115,5.925,11.562,7.866
		c4.442,1.94,9.237,2.916,14.37,2.916c5.072,0,9.828-0.976,14.273-2.916c4.443-1.941,8.313-4.588,11.613-7.918
		c3.3-3.326,5.9-7.202,7.814-11.618c1.914-4.401,2.865-9.108,2.865-14.109c0-4.998-0.959-9.699-2.865-14.108
		c-1.904-4.407-4.515-8.283-7.814-11.619c-3.3-3.336-7.17-5.974-11.613-7.914C603.9,87.756,599.145,86.781,594.072,86.781z"/>
	<path fill="#4E525A" d="M766.785,181.674c-3.123,0-5.697-1.038-7.71-3.123c-2.013-2.082-3.058-4.613-3.12-7.602
		c-4.794,3.747-9.864,6.479-15.213,8.172c-5.346,1.707-11.143,2.553-17.395,2.553c-7.431,0-14.441-1.437-21.041-4.316
		c-6.601-2.881-12.361-6.793-17.296-11.719c-4.935-4.929-8.838-10.697-11.718-17.295c-2.88-6.6-4.316-13.611-4.316-21.042V75.843
		c0-2.985,1.053-5.532,3.17-7.649c2.121-2.121,4.711-3.181,7.768-3.181c2.984,0,5.531,1.06,7.65,3.181
		c2.121,2.118,3.18,4.665,3.18,7.649v51.459c0,4.515,0.846,8.745,2.547,12.708c1.698,3.96,4.023,7.416,6.975,10.359
		c2.952,2.958,6.408,5.286,10.368,6.984c3.96,1.7,8.193,2.547,12.708,2.547c4.443,0,8.646-0.847,12.6-2.547
		c3.955-1.698,7.432-4.048,10.42-7.032c2.988-2.988,5.324-6.438,7.025-10.368c1.698-3.918,2.553-8.143,2.553-12.651V75.843
		c0-2.985,1.054-5.532,3.172-7.649c2.121-2.121,4.707-3.181,7.767-3.181c2.985,0,5.532,1.06,7.649,3.181
		c2.121,2.118,3.181,4.665,3.181,7.649v95.001c0,2.985-1.06,5.538-3.181,7.65C772.425,180.621,769.842,181.674,766.785,181.674z"/>
	<path fill="#4E525A" d="M815.745,75.738c9.237-7.155,20.103-10.731,32.606-10.731c7.287,0,14.215,1.422,20.778,4.272
		c6.563,2.853,12.345,6.714,17.343,11.622c5.002,4.893,8.961,10.659,11.877,17.295c2.916,6.633,4.375,13.694,4.375,21.188v51.36
		c0,3.057-1.06,5.646-3.181,7.758c-2.118,2.124-4.665,3.177-7.649,3.177c-3.061,0-5.649-1.053-7.768-3.177
		c-2.118-2.112-3.171-4.701-3.171-7.758v-51.36c0-4.443-0.867-8.646-2.604-12.6c-1.733-3.954-4.08-7.41-7.031-10.368
		c-2.952-2.943-6.399-5.292-10.362-7.026c-3.96-1.734-8.157-2.604-12.601-2.604c-4.515,0-8.738,0.855-12.656,2.547
		c-3.928,1.707-7.377,4.047-10.362,7.032c-2.987,2.988-5.334,6.459-7.034,10.419c-1.699,3.96-2.545,8.156-2.545,12.6v51.36
		c0,3.057-1.059,5.646-3.18,7.758c-2.118,2.124-4.665,3.177-7.65,3.177c-3.06,0-5.646-1.053-7.767-3.177
		c-2.118-2.112-3.171-4.701-3.171-7.758V75.951c0-2.988,1.053-5.553,3.171-7.71c2.121-2.154,4.707-3.229,7.767-3.229
		c2.985,0,5.532,1.074,7.65,3.229C814.701,70.398,815.745,72.894,815.745,75.738z"/>
	<path fill="#4E525A" d="M977.412,65.007c13.818,0,26.007,4.272,36.566,12.813V25.839c0-3.123,1.023-5.712,3.072-7.767
		c2.049-2.04,4.635-3.072,7.764-3.072c3.061,0,5.641,1.032,7.762,3.072c2.118,2.055,3.177,4.638,3.177,7.767v97.5
		c0,16.251-5.697,30.003-17.082,41.253c-11.526,11.395-25.278,17.082-41.25,17.082c-16.116,0-29.862-5.697-41.253-17.082
		c-11.395-11.385-17.082-25.137-17.082-41.253c0-16.113,5.697-29.859,17.082-41.25C947.553,70.695,961.305,65.007,977.412,65.007z
		 M1013.979,123.339c0-4.998-0.959-9.699-2.864-14.108c-1.908-4.407-4.519-8.283-7.815-11.619c-3.3-3.336-7.17-5.974-11.613-7.914
		c-4.445-1.941-9.203-2.916-14.273-2.916c-5.143,0-9.928,0.975-14.37,2.916c-4.446,1.94-8.301,4.572-11.565,7.866
		c-3.264,3.291-5.853,7.167-7.764,11.61c-1.914,4.446-2.859,9.168-2.859,14.166c0,5.001,0.955,9.724,2.859,14.166
		c1.905,4.446,4.5,8.322,7.764,11.613c3.265,3.306,7.119,5.925,11.565,7.866c4.442,1.94,9.237,2.916,14.37,2.916
		c5.07,0,9.828-0.976,14.273-2.916c4.443-1.941,8.313-4.588,11.613-7.918c3.297-3.326,5.901-7.202,7.815-11.618
		C1013.02,133.053,1013.979,128.34,1013.979,123.339z"/>
</g>
</svg>
